<svg width="1000" height="600" xmlns="http://www.w3.org/2000/svg"><defs><linearGradient id="a" gradientTransform="rotate(90)"><stop offset="5%" stop-color="#ffdab9"/><stop offset="95%" stop-color="#ffe3ca"/></linearGradient><linearGradient id="b" gradientTransform="rotate(90)"><stop offset="5%" stop-color="#ffdab9"/><stop offset="95%" stop-color="#ffe3ca"/></linearGradient><linearGradient id="c" gradientTransform="rotate(90)"><stop offset="5%" stop-color="#ffdab9"/><stop offset="95%" stop-color="#ffe3ca"/></linearGradient><linearGradient id="d" gradientTransform="rotate(90)"><stop offset="5%" stop-color="#ffdab9"/><stop offset="95%" stop-color="#ffe3ca"/></linearGradient><linearGradient id="e" gradientTransform="rotate(90)"><stop offset="5%" stop-color="#ffdec1"/><stop offset="95%" stop-color="#ffe6d0"/></linearGradient><linearGradient id="f" gradientTransform="rotate(90)"><stop offset="5%" stop-color="#ffe6d0"/><stop offset="95%" stop-color="#ffecdb"/></linearGradient><linearGradient id="g" gradientTransform="rotate(90)"><stop offset="5%" stop-color="#ffefe0"/><stop offset="95%" stop-color="#fff3e7"/></linearGradient><linearGradient id="h" gradientTransform="rotate(90)"><stop offset="5%" stop-color="#fff7ef"/><stop offset="95%" stop-color="#fff9f3"/></linearGradient><linearGradient id="i" gradientTransform="rotate(90)"><stop offset="5%" stop-color="#fff"/><stop offset="95%" stop-color="#fff"/></linearGradient></defs><path fill="#ffdab9" d="M0 0h1000v600H0z"/><path d="M0 60c34.544-11.278 69.088-22.556 98-17 28.912 5.556 52.193 27.945 87 27 34.807-.945 81.14-25.226 115-28 33.86-2.774 55.244 15.958 91 27s85.882 14.392 117 8c31.118-6.392 43.228-22.528 77-21 33.772 1.528 89.207 20.719 124 20 34.793-.719 48.944-21.347 80-29 31.056-7.653 79.016-2.33 117 2 37.984 4.33 65.992 7.665 134 11l-40 540H0Z" fill="url(#a)"/><path d="M0 120c37.838-8.225 75.675-16.45 104-18 28.325-1.55 47.137 3.578 81 2 33.863-1.578 82.778-9.86 121-2 38.222 7.86 65.753 31.86 94 32 28.247.14 57.212-23.584 91-25 33.788-1.416 72.399 19.474 111 19 38.601-.474 77.192-22.313 108-22 30.808.313 53.833 22.776 81 24 27.167 1.224 58.476-18.793 94-24 35.524-5.207 75.262 4.397 155 14l-40 480H0Z" fill="url(#b)"/><path d="M0 180c36.885 5.462 73.77 10.924 104 14 30.23 3.076 53.807 3.768 89 2 35.193-1.768 82.003-5.994 121-5 38.997.994 70.182 7.21 99 3 28.818-4.21 55.27-18.842 87-22 31.73-3.158 68.74 5.16 104 11 35.26 5.84 68.77 9.205 99 7 30.23-2.205 57.177-9.978 88-10 30.823-.022 65.52 7.708 101 9 35.48 1.292 71.74-3.854 148-9l-40 420H0Z" fill="url(#c)"/><path d="M0 240c29.492 7.857 58.984 15.714 95 16 36.016.286 78.555-6.998 116-12 37.445-5.002 69.797-7.722 98-6 28.203 1.722 52.259 7.885 80 10s59.17.182 100-6 91.065-16.612 124-18c32.935-1.388 48.57 6.267 75 11s63.654 6.543 100 3 71.813-12.441 107-13c35.187-.559 70.093 7.22 145 15l-40 360H0Z" fill="url(#d)"/><path d="M0 300c34.19-.893 68.38-1.785 106-1 37.62.785 78.67 3.248 108 4 29.33.752 46.942-.208 75-4s66.563-10.416 103-9c36.437 1.416 70.805 10.87 104 14 33.195 3.13 65.215-.068 102-3s78.334-5.6 115-6c36.666-.4 68.449 1.47 98 5 29.551 3.53 56.872 8.723 88 9 31.128.277 66.064-4.362 141-9l-40 300H0Z" fill="url(#e)"/><path d="M0 360c41.381-1.116 82.762-2.232 113 1s49.331 10.812 78 9c28.669-1.812 66.912-13.018 100-19 33.088-5.982 61.022-6.742 100-2s89.002 14.986 123 18c33.998 3.014 51.972-1.2 78-7s60.11-13.183 100-9 85.586 19.934 122 26c36.414 6.066 63.547 2.447 93-2 29.453-4.447 61.227-9.724 133-15l-40 240H0Z" fill="url(#f)"/><path d="M0 420c33.469 8.836 66.938 17.672 99 14 32.062-3.672 62.718-19.853 93-18 30.282 1.853 60.192 21.741 93 21 32.808-.741 68.516-22.112 105-26 36.484-3.888 73.743 9.708 111 12 37.257 2.292 74.51-6.72 106-5 31.49 1.72 57.214 14.172 88 16 30.786 1.828 66.635-6.97 98-14 31.365-7.03 58.247-12.294 92-12 33.753.294 74.376 6.147 155 12l-40 180H0Z" fill="url(#g)"/><path d="M0 480c25.377 3.39 50.753 6.782 88 9s86.364 3.264 123 2c36.636-1.264 60.79-4.838 94-11s75.476-14.911 107-13c31.524 1.911 52.308 14.483 85 13 32.692-1.483 77.293-17.022 112-15 34.707 2.022 59.52 21.604 91 27 31.48 5.396 69.63-3.393 103-7 33.37-3.607 61.963-2.03 94-2 32.037.03 67.518-1.485 143-3l-40 120H0Z" fill="url(#h)"/><path d="M0 540c36.461 7.963 72.922 15.925 108 10 35.078-5.925 68.772-25.74 98-24 29.228 1.74 53.99 25.03 85 29 31.01 3.97 68.268-11.385 101-15s60.94 4.507 93 10 67.975 8.356 101 4c33.025-4.356 63.161-15.93 101-19 37.839-3.07 83.38 2.366 121 3 37.62.634 67.32-3.533 98-4 30.68-.467 62.34 2.767 134 6l-40 60H0Z" fill="url(#i)"/></svg>